<svg width="431" height="154" viewBox="0 0 431 154" fill="none" xmlns="http://www.w3.org/2000/svg">
<path d="M188.438 108.875L207.812 120.938L198.812 133.562L173.125 116.188C171.5 116.521 169.854 116.792 168.188 117C166.562 117.208 164.938 117.312 163.312 117.312C157.188 117.312 151.583 116.167 146.5 113.875C141.458 111.583 137.125 108.375 133.5 104.25C129.875 100.125 127.083 95.25 125.125 89.625C123.167 84 122.188 77.8542 122.188 71.1875V69.8125C122.188 63.1875 123.167 57.0625 125.125 51.4375C127.083 45.8125 129.875 40.9167 133.5 36.75C137.125 32.625 141.458 29.4167 146.5 27.125C151.542 24.8333 157.125 23.6875 163.25 23.6875C169.417 23.6875 175.042 24.8333 180.125 27.125C185.208 29.4167 189.583 32.625 193.25 36.75C196.958 40.9167 199.792 45.8125 201.75 51.4375C203.708 57.0625 204.688 63.1875 204.688 69.8125V71.1875C204.688 79.1042 203.25 86.3333 200.375 92.875C197.542 99.4167 193.562 104.75 188.438 108.875ZM163.312 103.125C168.521 103.125 172.833 101.792 176.25 99.125C179.708 96.4583 182.271 92.7292 183.938 87.9375C185.646 83.1458 186.5 77.5625 186.5 71.1875V69.6875C186.5 63.3958 185.625 57.8542 183.875 53.0625C182.125 48.3125 179.521 44.6042 176.062 41.9375C172.646 39.2708 168.375 37.9375 163.25 37.9375C158.125 37.9375 153.875 39.25 150.5 41.875C147.125 44.5417 144.604 48.25 142.938 53C141.271 57.75 140.438 63.3125 140.438 69.6875V71.1875C140.438 77.4792 141.292 83.0625 143 87.9375C144.708 92.7292 147.25 96.4583 150.625 99.125C154.042 101.792 158.271 103.125 163.312 103.125Z" fill="white"/>
<path d="M232.628 117.312C225.919 117.312 220.586 115.521 216.628 111.938C212.669 108.312 210.69 103.396 210.69 97.1875C210.69 92.9375 211.857 89.2083 214.19 86C216.523 82.7917 219.94 80.2708 224.44 78.4375C228.94 76.6042 234.503 75.6875 241.128 75.6875H250.065V70.6875C250.065 67.4375 249.107 64.8125 247.19 62.8125C245.315 60.7708 242.482 59.75 238.69 59.75C236.732 59.75 234.961 60 233.378 60.5C231.836 60.9583 230.44 61.625 229.19 62.5L227.753 71.4375H214.628L214.378 53.875C217.919 51.875 221.753 50.25 225.878 49C230.003 47.75 234.607 47.125 239.69 47.125C248.523 47.125 255.503 49.1875 260.628 53.3125C265.753 57.3958 268.315 63.25 268.315 70.875V98.75C268.315 99.6667 268.315 100.583 268.315 101.5C268.357 102.375 268.44 103.229 268.565 104.062L275.628 105.062V116H253.003C252.544 114.833 252.086 113.583 251.628 112.25C251.169 110.917 250.836 109.583 250.628 108.25C248.461 111 245.898 113.208 242.94 114.875C240.023 116.5 236.586 117.312 232.628 117.312ZM237.503 103.812C240.044 103.812 242.461 103.25 244.753 102.125C247.044 100.958 248.815 99.4375 250.065 97.5625V86.875H241.065C237.065 86.875 234.023 87.7917 231.94 89.625C229.898 91.4583 228.878 93.6667 228.878 96.25C228.878 98.6667 229.628 100.542 231.128 101.875C232.669 103.167 234.794 103.812 237.503 103.812Z" fill="white"/>
<path d="M339.63 90.5V116H281.13V105.25L316.318 61.125H298.068L296.005 72.6875H282.63V48.375H338.193V60.0625L305.005 102.938H324.13L326.818 90.5H339.63Z" fill="white"/>
<path d="M378.633 117.312C372.174 117.312 366.528 115.875 361.695 113C356.862 110.167 353.112 106.25 350.445 101.25C347.82 96.25 346.508 90.5417 346.508 84.125V81.625C346.508 74.875 347.758 68.9167 350.258 63.75C352.758 58.5417 356.278 54.4583 360.82 51.5C365.403 48.5417 370.799 47.0833 377.008 47.125C383.133 47.125 388.278 48.3333 392.445 50.75C400.945 55.6667 405.195 64.6458 405.195 77.6875V87.625H365.445L365.32 88C365.57 90.9167 366.32 93.5417 367.57 95.875C368.778 98.1667 370.508 99.9792 372.758 101.312C375.008 102.646 377.737 103.312 380.945 103.312C384.278 103.312 387.383 102.896 390.258 102.062C393.174 101.188 396.008 99.9167 398.758 98.25L403.695 109.5C400.903 111.75 397.383 113.625 393.133 115.125C388.924 116.583 384.091 117.312 378.633 117.312ZM365.383 75.25L365.57 75.5625H388.133V73.9375C388.133 71.2292 387.778 68.8542 387.07 66.8125C385.487 62.6875 382.237 60.625 377.32 60.625C374.945 60.625 372.903 61.25 371.195 62.5C369.528 63.7917 368.216 65.5417 367.258 67.75C366.341 69.9583 365.716 72.4583 365.383 75.25Z" fill="white"/>
<path d="M25.7216 77C25.7216 119.526 126.156 154 83.4056 154C40.6557 154 6 119.526 6 77C6 34.4741 40.6557 0 83.4056 0C126.156 0 25.7216 34.4741 25.7216 77Z" fill="url(#paint0_linear_56_11)"/>
<path d="M68.2784 77C68.2784 34.4741 -32.1555 1.95304e-06 10.5944 5.69036e-06C53.3443 9.42768e-06 88 34.4741 88 77C88 119.526 53.3443 154 10.5944 154C-32.1555 154 68.2784 119.526 68.2784 77Z" fill="url(#paint1_linear_56_11)"/>
<defs>
<linearGradient id="paint0_linear_56_11" x1="50" y1="0" x2="50" y2="154" gradientUnits="userSpaceOnUse">
<stop stop-color="#00E2F0"/>
<stop offset="1" stop-color="#EB00A9"/>
</linearGradient>
<linearGradient id="paint1_linear_56_11" x1="44" y1="154" x2="44" y2="1.14122e-05" gradientUnits="userSpaceOnUse">
<stop stop-color="#9A1A9C"/>
<stop offset="1" stop-color="#3500A7"/>
</linearGradient>
</defs>
</svg>
